<svg width="101" height="24" viewBox="0 0 101 24" fill="none" xmlns="http://www.w3.org/2000/svg">
<path d="M8.03943 23.9048C6.27416 23.9048 4.78537 23.5101 3.57308 22.7207C2.38205 21.91 1.48878 20.8433 0.89327 19.5206C0.297757 18.1979 0 16.7472 0 15.1685C0 13.5898 0.287122 12.1391 0.861367 10.8163C1.45688 9.4723 2.36078 8.39493 3.57308 7.58424C4.78537 6.77355 6.27416 6.3682 8.03943 6.3682C9.8047 6.3682 11.2935 6.77355 12.5058 7.58424C13.7181 8.3736 14.622 9.42963 15.2175 10.7523C15.813 12.0751 16.1108 13.5258 16.1108 15.1045C16.1108 16.6832 15.813 18.1446 15.2175 19.4886C14.622 20.8113 13.7181 21.878 12.5058 22.6887C11.2935 23.4994 9.8047 23.9048 8.03943 23.9048ZM8.03943 20.3206C9.27299 20.3206 10.1982 19.83 10.8149 18.8486C11.453 17.8459 11.772 16.5979 11.772 15.1045C11.772 13.6111 11.453 12.3844 10.8149 11.4244C10.1982 10.443 9.27299 9.95232 8.03943 9.95232C6.80586 9.95232 5.88069 10.443 5.26391 11.4244C4.64713 12.3844 4.33874 13.6111 4.33874 15.1045C4.33874 16.5979 4.64713 17.8459 5.26391 18.8486C5.90196 19.83 6.82713 20.3206 8.03943 20.3206Z" fill="white"/>
<path d="M16.3632 6.75222H20.8296V9.3443H21.0529C21.4357 8.51227 22.0525 7.80825 22.9032 7.23223C23.754 6.63488 24.7855 6.3362 25.9978 6.3362C28.1884 6.3362 29.7304 7.04022 30.6236 8.44827C31.5382 9.85631 31.9955 11.4564 31.9955 13.2484V23.6488H27.5929V13.9844C27.5929 12.7471 27.2952 11.7764 26.6996 11.0724C26.1254 10.3683 25.3066 10.0163 24.2431 10.0163C23.1159 10.0163 22.2652 10.3897 21.6909 11.1364C21.1167 11.8617 20.8296 12.8111 20.8296 13.9844V23.6488H16.3632V6.75222Z" fill="white"/>
<path d="M40.7235 3.1041C40.0642 3.1041 39.575 3.24277 39.256 3.52011C38.9583 3.77612 38.7668 4.09613 38.6818 4.48014C38.618 4.84282 38.5861 5.3335 38.5861 5.95219V6.75222H42.3505V10.2083H38.5861V23.6488H34.1835V10.2083H32.046V6.75222H34.1835V5.05616C34.1835 3.75479 34.5344 2.59208 35.2363 1.56805C35.9381 0.522683 37.3631 0 39.5112 0C40.0429 0 40.5959 0.0320006 41.1702 0.0960018C41.7657 0.160004 42.1591 0.234674 42.3505 0.32001V3.2321C41.8401 3.14677 41.2978 3.1041 40.7235 3.1041Z" fill="white"/>
<path d="M47.274 23.9048C45.1897 23.9048 43.5627 23.1047 42.3929 21.5047C41.2232 19.9046 40.6383 17.7926 40.6383 15.1685C40.6383 12.5017 41.2232 10.3683 42.3929 8.76828C43.5839 7.14689 45.2429 6.3362 47.3697 6.3362C48.7947 6.3362 49.9113 6.66688 50.7195 7.32823C51.5277 7.96825 52.1019 8.65094 52.4422 9.3763H52.6974V6.75222H57.1319V23.6488H52.6974V20.7367H52.4422C52.0594 21.526 51.4639 22.2514 50.6557 22.9127C49.8475 23.5741 48.7202 23.9048 47.274 23.9048ZM48.901 20.3206C50.1559 20.3206 51.1023 19.8086 51.7403 18.7846C52.3784 17.7606 52.6974 16.5339 52.6974 15.1045C52.6974 13.6751 52.3784 12.4591 51.7403 11.4564C51.1236 10.4537 50.1771 9.95232 48.901 9.95232C47.6249 9.95232 46.6785 10.4537 46.0617 11.4564C45.4449 12.4591 45.1365 13.6751 45.1365 15.1045C45.1365 16.5552 45.4449 17.7926 46.0617 18.8166C46.6785 19.8193 47.6249 20.3206 48.901 20.3206Z" fill="white"/>
<path d="M58.2544 6.75222H62.6251V9.4403H62.8484C63.1249 8.69361 63.6353 8.06426 64.3797 7.55224C65.1241 7.01889 66.0812 6.75222 67.2509 6.75222C67.6976 6.75222 68.0804 6.79488 68.3994 6.88022L68.208 10.9443C67.6763 10.795 67.1127 10.7203 66.5172 10.7203C65.1985 10.7203 64.2202 11.0724 63.5821 11.7764C62.9441 12.4591 62.6251 13.6004 62.6251 15.2005V23.6488H58.2544V6.75222Z" fill="white"/>
<path d="M68.1225 6.75222H72.557V9.4723H72.7803C73.0142 8.87495 73.5034 8.20293 74.2478 7.45624C74.9922 6.70955 76.0769 6.3362 77.5019 6.3362C78.6078 6.3362 79.533 6.59221 80.2774 7.10423C81.0218 7.61624 81.5641 8.16026 81.9044 8.73628C82.266 9.29096 82.4786 9.69631 82.5424 9.95232H82.7658C83.021 9.26963 83.5527 8.5016 84.3609 7.64824C85.1691 6.77355 86.4133 6.3362 88.0935 6.3362C89.561 6.3362 90.7201 6.72021 91.5709 7.48824C92.4429 8.23493 93.049 9.14162 93.3893 10.2083C93.7509 11.2537 93.9316 12.2671 93.9316 13.2484V23.6488H89.4972V13.6964C89.4972 12.5444 89.1994 11.6697 88.6039 11.0724C88.0084 10.475 87.2853 10.1763 86.4346 10.1763C85.5626 10.1763 84.8075 10.4857 84.1695 11.1044C83.5527 11.723 83.2443 12.5871 83.2443 13.6964V23.6488H78.8099V13.6964C78.8099 12.5444 78.5121 11.6697 77.9166 11.0724C77.3211 10.475 76.598 10.1763 75.7472 10.1763C74.8752 10.1763 74.1202 10.4857 73.4821 11.1044C72.8654 11.723 72.557 12.5871 72.557 13.6964V23.6488H68.1225V6.75222Z" fill="white"/>
<rect x="95.9002" y="19.124" width="4.49972" height="4.49972" fill="#FF5D2A"/>
</svg>
