<svg width="97" height="34" viewBox="0 0 97 34" fill="none" xmlns="http://www.w3.org/2000/svg">
<path d="M9.46135 3.37371C8.74247 3.37371 8.20911 3.52443 7.86127 3.82586C7.53661 4.1041 7.32791 4.45191 7.23515 4.86927C7.16558 5.26345 7.13079 5.79675 7.13079 6.46918V7.33869H11.2353V11.095H7.13079V25.7028H2.33055V11.095H0V7.33869H2.33055V5.49532C2.33055 4.08091 2.71318 2.81722 3.47844 1.70424C4.24369 0.568081 5.79739 0 8.13954 0C8.71928 0 9.32221 0.0347801 9.94833 0.10434C10.5976 0.173902 11.0266 0.255057 11.2353 0.347805V3.51283C10.6788 3.42008 10.0875 3.37371 9.46135 3.37371Z" fill="white"/>
<path d="M11.1891 7.33869H15.9546V11.095H16.381C16.381 9.24419 17.0561 8.76469 17.8677 8.2082C18.6794 7.62853 19.7229 7.33869 20.9983 7.33869C21.4853 7.33869 22.0764 7.24594 22.4242 7.33869L22.4372 11.7285C21.8575 11.5662 20.8476 11.6515 20.1983 11.6515C18.7605 11.6515 17.6938 12.0341 16.9981 12.7992C16.3025 13.5412 15.9546 14.7817 15.9546 16.5208V25.7028H11.1891V7.33869Z" fill="white"/>
<path d="M39.1207 25.7028H34.2857V22.0509H33.9285C33.9285 23.7551 32.9639 24.4623 32.0595 25.1115C31.1783 25.7376 30.0884 26.0506 28.7898 26.0506C26.4476 26.0506 24.8012 25.2854 23.8504 23.7551C22.8996 22.2016 22.4242 20.4625 22.4242 18.538V7.33869H27.2245V17.7381C27.2245 19.0597 27.5259 20.1147 28.1289 20.9031C28.7318 21.6683 29.5898 22.0509 30.7029 22.0509C31.9088 22.0509 32.8016 21.6451 33.3813 20.8335C33.9842 20.022 34.2857 18.9902 34.2857 17.7381V7.33869H39.1207V25.7028Z" fill="white"/>
<path d="M40.4015 7.33869H45.2017V25.7028H40.4015V7.33869Z" fill="white"/>
<path d="M53.4867 11.095V19.2684C53.4867 20.08 53.5214 20.6828 53.591 21.077C53.6838 21.4712 53.9157 21.7842 54.2867 22.0161C54.6577 22.2479 55.2607 22.3639 56.0955 22.3639C56.5825 22.3639 57.081 22.3175 57.5912 22.2248V25.5637C57.3361 25.6101 56.8723 25.668 56.1998 25.7376C55.5505 25.8071 54.9128 25.8419 54.2867 25.8419C52.5939 25.8419 51.33 25.5985 50.4952 25.1115C49.6836 24.6014 49.1734 23.9754 48.9647 23.2334C48.756 22.4682 48.6516 21.4944 48.6516 20.3118V11.095H44.7986V7.33869H48.6864V1.35644H53.4867V7.33869H57.5912V11.095H53.4867Z" fill="white"/>
<path d="M58.666 7.33869H63.4662V25.7028H58.666V7.33869Z" fill="white"/>
<path d="M73.6643 3.37371C72.9454 3.37371 72.4121 3.52443 72.0642 3.82586C71.7396 4.1041 71.5309 4.45191 71.4381 4.86927C71.3685 5.26345 71.3338 5.79675 71.3338 6.46918V7.33869H72.3599H73.386H75.4383V11.095H71.3338V25.7028H66.5335V11.095H64.203V7.33869H66.5335V5.49532C66.5335 4.08091 66.9161 2.81722 67.6814 1.70424C68.4467 0.568081 70.0004 0 72.3425 0C72.9222 0 73.5252 0.0347801 74.1513 0.10434C74.8006 0.173902 75.2296 0.255057 75.4383 0.347805V3.51283C74.8818 3.42008 74.2904 3.37371 73.6643 3.37371Z" fill="white"/>
<path d="M83.9838 28.3113C83.6592 29.1693 83.3114 29.9228 82.9403 30.5721C82.5693 31.2445 81.9084 31.8937 80.9576 32.5198C80.03 33.1458 78.801 33.4589 77.2705 33.4589C76.6212 33.4589 76.0646 33.4009 75.6008 33.285C75.137 33.1922 74.8472 33.1342 74.7312 33.1111V29.7373C75.1022 29.8301 75.6008 29.8765 76.2269 29.8765C76.9922 29.8765 77.6067 29.7489 78.0705 29.4939C78.5343 29.2388 78.9053 28.9026 79.1836 28.4852C79.4619 28.0679 79.7402 27.4882 80.0184 26.7462L80.6098 25.2854L74.0007 7.33869H78.8706L82.836 19.964H83.0447L87.2188 7.33869H92.0886L83.9838 28.3113Z" fill="white"/>
<rect x="92.0886" y="20.8735" width="4.91139" height="4.60443" fill="#59D766"/>
</svg>
