<svg width="128" height="29" viewBox="0 0 128 29" fill="none" xmlns="http://www.w3.org/2000/svg">
<path d="M9.55892 28.7415C7.46 28.7415 5.68983 28.2745 4.24841 27.3404C2.83227 26.3811 1.77017 25.1188 1.0621 23.5537C0.354034 21.9885 0 20.2718 0 18.4037C0 16.5355 0.34139 14.8189 1.02417 13.2537C1.73224 11.6632 2.80698 10.3883 4.24841 9.42903C5.68983 8.46972 7.46 7.99007 9.55892 7.99007C11.6578 7.99007 13.428 8.46972 14.8694 9.42903C16.3109 10.3631 17.3856 11.6127 18.0937 13.1779C18.8017 14.7431 19.1558 16.4598 19.1558 18.3279C19.1558 20.1961 18.8017 21.9253 18.0937 23.5158C17.3856 25.081 16.3109 26.3432 14.8694 27.3025C13.428 28.2619 11.6578 28.7415 9.55892 28.7415ZM9.55892 24.5003C11.0256 24.5003 12.1257 23.9197 12.859 22.7584C13.6177 21.5719 13.997 20.0951 13.997 18.3279C13.997 16.5608 13.6177 15.1092 12.859 13.9731C12.1257 12.8119 11.0256 12.2312 9.55892 12.2312C8.09221 12.2312 6.99217 12.8119 6.25882 13.9731C5.52546 15.1092 5.15878 16.5608 5.15878 18.3279C5.15878 20.0951 5.52546 21.5719 6.25882 22.7584C7.01746 23.9197 8.1175 24.5003 9.55892 24.5003Z" fill="white"/>
<path d="M19.456 8.44448H24.7665V11.5118H25.032C25.4872 10.5272 26.2205 9.69411 27.2321 9.01249C28.2436 8.30563 29.4701 7.9522 30.9115 7.9522C33.5162 7.9522 35.3496 8.78529 36.4117 10.4515C37.4991 12.1176 38.0428 14.011 38.0428 16.1316V28.4386H32.8081V17.0026C32.8081 15.5383 32.4541 14.3897 31.746 13.5566C31.0632 12.7235 30.0896 12.307 28.8252 12.307C27.485 12.307 26.4734 12.7488 25.7907 13.6323C25.1079 14.4907 24.7665 15.6141 24.7665 17.0026V28.4386H19.456V8.44448Z" fill="white"/>
<path d="M45.9638 12.5342V21.4331C45.9638 22.3166 46.0017 22.973 46.0776 23.4022C46.1787 23.8313 46.4316 24.1722 46.8362 24.4246C47.2408 24.6771 47.8983 24.8033 48.8087 24.8033C49.3397 24.8033 49.8834 24.7528 50.4398 24.6518V28.2871C50.1616 28.3376 49.6558 28.4007 48.9225 28.4764C48.2144 28.5522 47.519 28.59 46.8362 28.59C44.9902 28.59 43.612 28.325 42.7016 27.7948C41.8165 27.2394 41.2602 26.5578 41.0326 25.75C40.805 24.9169 40.6912 23.8566 40.6912 22.5691V12.5342H37.3532V8.44448H40.7291V1.93125H45.9638V8.44448H51.787V12.5342H45.9638Z" fill="white"/>
<path d="M51.1566 8.44448H56.3534V11.6254H56.6189C56.9476 10.7418 57.5545 9.99705 58.4396 9.39117C59.3247 8.76004 60.4627 8.44448 61.8535 8.44448C62.3846 8.44448 62.8398 8.49497 63.2191 8.59595L62.9915 13.4051C62.3593 13.2284 61.6892 13.1401 60.9811 13.1401C59.4132 13.1401 58.25 13.5566 57.4913 14.3897C56.7327 15.1975 56.3534 16.5481 56.3534 18.4415V28.4386H51.1566V8.44448Z" fill="white"/>
<path d="M69.2423 28.7415C66.7641 28.7415 64.8295 27.7948 63.4387 25.9014C62.0478 24.0081 61.3524 21.5088 61.3524 18.4037C61.3524 15.248 62.0478 12.7235 63.4387 10.8301C64.8548 8.91151 66.8273 7.9522 69.3561 7.9522C71.0504 7.9522 72.378 8.3435 73.339 9.12609C74.2999 9.88345 74.9827 10.6913 75.3873 11.5496H75.6908V8.44448H80.9634V28.4386H75.6908V24.9926H75.3873C74.9321 25.9267 74.2241 26.785 73.2631 27.5676C72.3022 28.3502 70.9619 28.7415 69.2423 28.7415ZM71.1768 24.5003C72.6689 24.5003 73.7942 23.8945 74.5528 22.6827C75.3115 21.4709 75.6908 20.0193 75.6908 18.3279C75.6908 16.6365 75.3115 15.1975 74.5528 14.011C73.8195 12.8245 72.6941 12.2312 71.1768 12.2312C69.6596 12.2312 68.5342 12.8245 67.8009 14.011C67.0675 15.1975 66.7008 16.6365 66.7008 18.3279C66.7008 20.0446 67.0675 21.5088 67.8009 22.7206C68.5342 23.9071 69.6596 24.5003 71.1768 24.5003Z" fill="white"/>
<path d="M89.5405 28.7415C87.0117 28.7415 85.0518 27.7948 83.661 25.9014C82.2954 24.0081 81.6127 21.5088 81.6127 18.4037C81.6127 15.2228 82.2954 12.6856 83.661 10.7923C85.0518 8.89889 87.0243 7.9522 89.5784 7.9522C91.298 7.9522 92.6383 8.3435 93.5992 9.12609C94.5602 9.88345 95.243 10.6913 95.6476 11.5496H95.951V0H101.224V28.4386H95.951V24.9926H95.6476C95.1924 25.9267 94.4843 26.785 93.5234 27.5676C92.5624 28.3502 91.2348 28.7415 89.5405 28.7415ZM91.4371 24.5761C92.9291 24.5761 94.0544 23.9702 94.8131 22.7584C95.5717 21.5467 95.951 20.0951 95.951 18.4037C95.951 16.7375 95.5717 15.2985 94.8131 14.0868C94.0544 12.875 92.9291 12.2691 91.4371 12.2691C89.9198 12.2691 88.7819 12.875 88.0232 14.0868C87.2899 15.2733 86.9232 16.6996 86.9232 18.3658C86.9232 20.0825 87.2899 21.5467 88.0232 22.7584C88.7819 23.9702 89.9198 24.5761 91.4371 24.5761Z" fill="white"/>
<path d="M111.096 28.7415C108.997 28.7415 107.227 28.2619 105.785 27.3025C104.344 26.318 103.269 25.0431 102.561 23.4779C101.878 21.8875 101.537 20.1834 101.537 18.3658C101.537 16.5481 101.878 14.8567 102.561 13.2915C103.269 11.7011 104.344 10.4136 105.785 9.42903C107.227 8.44448 109.009 7.9522 111.134 7.9522C113.941 7.9522 116.166 8.8484 117.81 10.6408C119.479 12.4332 120.313 15.0208 120.313 18.4037V19.8426H106.582V20.1456C106.582 21.3573 106.999 22.405 107.834 23.2886C108.668 24.1469 109.718 24.5761 110.982 24.5761C111.968 24.5761 112.803 24.3489 113.486 23.8945C114.168 23.4401 114.661 22.8215 114.965 22.0389H120.124C119.593 24.0081 118.556 25.6237 117.013 26.886C115.471 28.123 113.498 28.7415 111.096 28.7415ZM115.268 16.4345C115.218 14.8441 114.813 13.6702 114.054 12.9129C113.296 12.1555 112.297 11.7768 111.058 11.7768C109.743 11.7768 108.706 12.1934 107.947 13.0265C107.189 13.8595 106.784 14.9956 106.734 16.4345H115.268Z" fill="white"/>
<rect x="122.319" y="23.0601" width="5.68146" height="5.34726" fill="#FFC32A"/>
</svg>
